<svg id="Layer_1" data-name="Layer 1" xmlns="http://www.w3.org/2000/svg" viewBox="0 0 220.15 304"><title>C</title><path d="M291.72,242.5A57,57,0,0,1,306,237.6a73.64,73.64,0,0,0-16.77-3.06c-16.58-1.09-30.2,3.3-41.63,13.39-7.29,6.44-12.9,14.67-18,22.56l-0.85,1.31c-7,10.82-14.26,22-23.91,31.26-10.9,10.46-21.3,16.27-31.76,17.75-11.14,1.57-21.11-3.39-30.5-15.17a77.17,77.17,0,0,1-13.5-26.06,234.33,234.33,0,0,1-6.83-29.41c-2-12.12-3.44-24.4-4.3-36.49a269.08,269.08,0,0,1,1.48-50.23c2.73-23.79,7.38-45,14.22-64.73,8.08-23.38,18.17-42.61,30.84-58.77A117.3,117.3,0,0,1,178.72,24.6a150.4,150.4,0,0,0-15.37,11,204,204,0,0,0-40.49,44.61c-14.74,22-25.54,47.29-32.08,75.16a191.34,191.34,0,0,0-4.69,53,176,176,0,0,0,4.1,31.34,12.12,12.12,0,0,1,.27,2.34v0.14l3,12.16,3,8.61c12,34.7,37.2,58.77,67.5,64.37,27.87,5.15,54.87-5.21,74-28.45,5.38-6.52,10.56-13.47,15.57-20.19,3.06-4.1,6.12-8.21,9.24-12.26A81.57,81.57,0,0,1,291.72,242.5Z" transform="translate(-85.85 -24.6)"/></svg>