<svg id="Layer_1" data-name="Layer 1" xmlns="http://www.w3.org/2000/svg" viewBox="0 0 158.19 332.24"><title>D</title><path d="M156.71,320.26c-2-13.35-4.1-27.16-5.29-40.89-4.3-49.7-7.2-91.48-7.38-133.83,0-12.52-.5-25.28-0.93-37.62l-0.35-10.19c-0.2-6.17-.6-11.7-1.21-16.89L141,76.47a113.63,113.63,0,0,0-5.36-22c-5.71-15.92-14.53-26.9-27-33.59a79.7,79.7,0,0,0-10.87-4.55,96.15,96.15,0,0,1,7.4,9.83c11.3,17.9,15.19,38,17.32,53.57,1.78,13,3,26,4.16,41.39,1.51,19.26,3.44,44.64,4.92,70.24,0.61,10.55,1,21.26,1.35,31.62,0.28,8,.56,15.93.94,23.89,1.36,28.3,2.62,51.34,4,72.53a88,88,0,0,0,2.89,15.69c1.58,6.17,3.93,9.72,7.65,11.52,5.15,2.49,10.49,2.24,16.39,1.28a39.83,39.83,0,0,1-6.53-17.47Q157.49,325.34,156.71,320.26Z" transform="translate(-97.78 -16.33)"/><path d="M233.71,269.61a166.36,166.36,0,0,0,21.22-65.08,159.81,159.81,0,0,0-.45-40.11,143.73,143.73,0,0,0-14.08-44.85c-5.7-11.29-12.34-20.22-20.28-27.3a65.16,65.16,0,0,0-24.35-13.78A72.07,72.07,0,0,0,164.47,76,60.12,60.12,0,0,1,187,85.36c10.3,6.88,18.69,16.54,25.67,29.51,6.13,11.4,11,24.37,14.73,39.64,6.95,28.08,7.38,57.73,1.29,88.12-5,24.85-14.42,47-28.06,65.78q-1.68,2.33-3.47,4.53,3.47-2.77,6.81-5.79A152.66,152.66,0,0,0,233.71,269.61Z" transform="translate(-97.78 -16.33)"/></svg>