<?xml version="1.0" encoding="UTF-8" standalone="no"?>
<svg
   xmlns:dc="http://purl.org/dc/elements/1.1/"
   xmlns:cc="http://creativecommons.org/ns#"
   xmlns:rdf="http://www.w3.org/1999/02/22-rdf-syntax-ns#"
   xmlns:svg="http://www.w3.org/2000/svg"
   xmlns="http://www.w3.org/2000/svg"
   viewBox="0 0 1056 816"
   height="816"
   width="1056"
   xml:space="preserve"
   id="svg2"
   version="1.1"><metadata
     id="metadata8"><rdf:RDF><cc:Work
         rdf:about=""><dc:format>image/svg+xml</dc:format><dc:type
           rdf:resource="http://purl.org/dc/dcmitype/StillImage" /></cc:Work></rdf:RDF></metadata><defs
     id="defs6"><clipPath
       id="clipPath18"
       clipPathUnits="userSpaceOnUse"><path
         id="path16"
         d="M 0,612 H 792 V 0 H 0 Z" /></clipPath></defs><g
     transform="matrix(1.3333333,0,0,-1.3333333,0,816)"
     id="g10"><g
       id="g12"><g
         clip-path="url(#clipPath18)"
         id="g14"><g
           transform="translate(481.4196,254.5468)"
           id="g20"><path
             id="path22"
             style="fill:#373535;fill-opacity:1;fill-rule:nonzero;stroke:none"
             d="m 0,0 c -9.185,12.799 -15.226,27.732 -17.954,44.383 -1.061,6.466 -2.009,12.952 -2.957,19.439 -1.557,10.653 -3.167,21.667 -5.269,32.326 -5.775,29.281 -18.633,50.758 -39.307,65.661 -5.982,4.312 -12.689,7.408 -20.276,9.412 1.875,6.733 3.181,13.602 3.531,20.688 0.622,12.589 -1.948,24.343 -10.044,34.287 -3.172,3.898 -7.204,7.096 -10.844,10.613 -0.147,0.048 -0.294,0.097 -0.441,0.145 -1.103,-0.933 -2.206,-1.866 -2.924,-2.473 1.357,-4.863 3.018,-9.309 3.804,-13.906 2.414,-14.129 0.149,-27.996 -3.446,-41.625 -2.702,-10.241 -5.913,-20.358 -9.202,-30.43 -5.596,-17.138 -11.274,-34.252 -17.217,-51.271 -4.692,-13.435 -9.929,-26.678 -14.753,-40.068 -6.318,-17.539 -12.563,-35.106 -18.618,-52.738 -1.394,-4.057 -2.118,-8.389 -2.738,-12.654 -0.688,-4.737 -0.489,-9.538 2.91,-13.368 4.995,-5.628 12.022,-6.636 19.033,-8.149 -2.274,6.748 -2.732,11.55 -1.036,18.247 3.226,12.734 6.207,25.563 10.181,38.069 10.379,32.665 21.128,65.212 34.17,96.952 4.673,11.371 8.901,22.927 13.248,34.43 0.722,1.91 1.4,3.83 2.056,5.756 9.236,-9.663 15.13,-21.077 19.303,-30.248 6.977,-15.344 10.513,-31.109 12.547,-45.847 -3.448,-1.704 -6.897,-3.408 -10.345,-5.113 -9.509,-4.701 -18.783,-9.805 -27.161,-16.368 -6.327,-4.956 -11.918,-10.599 -15.536,-17.909 -6.553,-13.592 -1.669,-26.335 -1.669,-26.335 0.796,0.384 1.788,-8.62 2.585,-8.236 0.567,5.096 2.21,9.827 4.771,14.261 3.947,6.835 9.373,12.342 15.362,17.378 6.181,5.197 22.046,14.481 34.186,21.04 0.959,-11.192 2.385,-22.865 6.374,-33.72 6.818,-18.56 19.643,-31.975 39.208,-41.014 7.506,-3.468 15.335,-5.927 23.435,-7.369 C 9.657,-11.795 4.72,-6.579 0,0" /></g></g></g></g></svg>