<svg id="Layer_1" data-name="Layer 1" xmlns="http://www.w3.org/2000/svg" viewBox="0 0 209.95 318.93"><title>A</title><path d="M278,304.65a113.74,113.74,0,0,0,16.88,5.42,102.85,102.85,0,0,1-10.46-11.53c-12.13-15.43-20.47-33.66-24.76-54.19-1.64-7.8-3.14-15.65-4.59-23.24l-0.09-.44c-2.45-12.78-5-26-8.07-38.69-8.4-34.52-24.77-59.36-50-75.93a69.44,69.44,0,0,0-21.48-9.31l-5.48-1.38,1.17-5.53a108.1,108.1,0,0,0,2.5-21.93c0.09-16.2-4.26-29-13.3-39.16a82.85,82.85,0,0,0-9-8.26c-1-.8-1.91-1.59-2.85-2.38l-0.27.25c0.42,1.22.84,2.41,1.27,3.6A93.28,93.28,0,0,1,153,33.53c4.13,19.09,1.12,37.83-2,52-2.61,12-5.72,23.75-9.59,37.64-4.85,17.4-11.29,40.32-18.2,63.29-2.89,9.61-6.11,19.49-9,28.21l-0.09.28c-2.28,7-4.56,14-6.75,21-7.9,25.37-14.18,46-19.79,65a83.14,83.14,0,0,0-2.55,15c-0.43,4.3-.43,9.76,3.44,13.75,4.53,4.67,10.57,6.1,17.06,7.22a35.65,35.65,0,0,1-.72-19q0.93-4.51,1.84-9l0.08-.37c2.52-12.4,5.11-25.18,8.46-37.58,12.16-45.07,23-82.7,36.41-119.89,4-11.13,7.71-22.49,11.29-33.48l6.71-21,6.88,7.34c10.3,11,17.18,23.32,22,32.83,8.25,16.21,14.19,34.8,18.15,56.83l0.75,4.16-13.27,7.31c-9.72,5.35-21,12-31.14,20.66-8,6.88-13.23,13.4-16.37,20.51a36.89,36.89,0,0,0-2.59,19.29c4.16-8,10.19-15.48,19-23.55,9-8.3,31.83-22.34,38.61-26.44l7.69-4.66,1.18,8.91c1.69,12.69,4,26.16,9.18,38.63C238.71,279.92,254.5,295,278,304.65Z" transform="translate(-84.93 -18.07)"/></svg>