<svg id="Layer_1" data-name="Layer 1" xmlns="http://www.w3.org/2000/svg" viewBox="0 0 206.51 328.11"><title>B</title><path d="M233.9,39.66c-1.73-2.17-3.32-4.47-5.21-6.5-9.48-10.19-21.46-14.36-35.12-14-10,.26-19.31,3.21-28.38,7.17-0.64.28-9.54,4.55-13.3,6.5l0.52,3.28,3.72-1.92c8.38-4.3,17.2-7.2,26.81-6.58,10,0.65,18.42,5,25.58,11.78C217.65,48,222.64,59,225.27,71.08c3.37,15.52,1.91,30.74-3.51,45.59-5.33,14.62-13.75,27.18-25.85,37a85.17,85.17,0,0,1-13.45,9q-4.54,2.44-9.11,4.83l0.52,3.26,14.38-7.48c6.88-3.57,14.05-6.17,21.9-6.65,8.8-.54,16.58,2.24,23.66,7.2,9.59,6.71,15.93,16,20.39,26.64,9.28,22.26,9,44.86,1.93,67.51-6.82,21.94-26.24,41.06-48.9,46.59-13.49,3.29-27.52,1.34-40.29-3.78L165.28,304c-0.09.18,10,3.43,10.54,3.58A82.2,82.2,0,0,0,202,310.17c27.34-1.86,48.51-20.82,62.33-43.27a100.27,100.27,0,0,0,15.3-53.3,80.22,80.22,0,0,0-5.85-29.5c-3.1-7.89-6.77-15.43-12.28-21.93C249.81,148.33,234.77,144,217.26,147c-1.71.29-3.4,0.67-5.7,1.13,1.13-1.14,1.84-1.91,2.59-2.63a100.81,100.81,0,0,0,28.21-46.55,72.55,72.55,0,0,0-.79-41.79c-1-3.34-2.45-6.56-3.69-9.83Z" transform="translate(-73.15 -19.14)"/><path d="M159.81,326.43q-1-4.74-2.1-9.48c-2.77-12.43-5.64-25.29-7.65-38.08-7.32-46.59-12.8-85.76-15.74-125.55-0.88-11.85-2.14-23.87-3.36-35.5l-1-9.61c-1.75-17-4.78-29.74-9.83-41.23C113.39,51.64,103.85,41.35,91,35.55a84.8,84.8,0,0,0-11.92-4c-1.63-.46-3.25-0.91-4.86-1.4l-1,2.45c1.11,1.21,2.23,2.38,3.33,3.53a93.5,93.5,0,0,1,8,9.09c11.5,15.69,16.39,34,19.35,48.25,2.53,12.14,4.48,24.22,6.63,38.62,2.69,18.08,6.18,41.92,9.26,65.89,1.26,9.87,2.32,19.92,3.34,29.64,0.79,7.52,1.58,15,2.47,22.55,3.14,26.55,5.85,48.23,8.51,68.22a85.43,85.43,0,0,0,3.89,15.15c2.19,6.62,5.18,10.38,9.69,12.19,7.31,2.92,14.46,1.07,22-.92C164.09,338.95,161.45,333.9,159.81,326.43Z" transform="translate(-73.15 -19.14)"/></svg>