<?xml version="1.0" encoding="UTF-8" standalone="no"?>
<svg
   xmlns:dc="http://purl.org/dc/elements/1.1/"
   xmlns:cc="http://creativecommons.org/ns#"
   xmlns:rdf="http://www.w3.org/1999/02/22-rdf-syntax-ns#"
   xmlns:svg="http://www.w3.org/2000/svg"
   xmlns="http://www.w3.org/2000/svg"
   viewBox="0 0 1056 816"
   height="816"
   width="1056"
   xml:space="preserve"
   id="svg2"
   version="1.1"><metadata
     id="metadata8"><rdf:RDF><cc:Work
         rdf:about=""><dc:format>image/svg+xml</dc:format><dc:type
           rdf:resource="http://purl.org/dc/dcmitype/StillImage" /></cc:Work></rdf:RDF></metadata><defs
     id="defs6"><clipPath
       id="clipPath18"
       clipPathUnits="userSpaceOnUse"><path
         id="path16"
         d="M 0,612 H 792 V 0 H 0 Z" /></clipPath></defs><g
     transform="matrix(1.3333333,0,0,-1.3333333,0,816)"
     id="g10"><g
       id="g12"><g
         clip-path="url(#clipPath18)"
         id="g14"><g
           transform="translate(407.4876,314.6115)"
           id="g20"><path
             id="path22"
             style="fill:#373535;fill-opacity:1;fill-rule:nonzero;stroke:none"
             d="m 0,0 c -0.614,0.705 -1.185,1.454 -1.851,2.106 -3.346,3.28 -7.44,4.498 -12.028,4.169 -3.346,-0.24 -6.446,-1.377 -9.433,-2.848 -0.213,-0.105 -3.14,-1.676 -4.374,-2.392 l 0.227,-1.096 c 0.407,0.234 0.814,0.47 1.222,0.704 2.753,1.577 5.674,2.685 8.917,2.624 3.38,-0.063 6.272,-1.393 8.784,-3.568 3.201,-2.769 5.048,-6.377 6.117,-10.4 1.373,-5.166 1.116,-10.309 -0.478,-15.388 -1.569,-4.998 -4.205,-9.354 -8.123,-12.856 -1.351,-1.207 -2.829,-2.316 -4.384,-3.244 -0.994,-0.593 -1.992,-1.179 -2.989,-1.765 l 0.225,-1.09 c 1.574,0.913 3.147,1.827 4.722,2.738 2.259,1.307 4.632,2.291 7.262,2.574 2.952,0.318 5.611,-0.499 8.067,-2.056 3.33,-2.109 5.605,-5.123 7.267,-8.645 3.464,-7.343 3.708,-14.951 1.689,-22.676 -1.955,-7.485 -8.194,-14.214 -15.73,-16.422 -4.485,-1.315 -9.236,-0.875 -13.611,0.651 0,0 -0.504,-1.085 -0.504,-1.085 -0.028,-0.061 3.405,-1 3.599,-1.041 2.901,-0.616 5.907,-0.8 8.857,-0.464 9.166,1.045 15.996,7.749 20.298,15.515 3.125,5.641 4.615,11.711 4.324,18.161 -0.153,3.418 -1.023,6.693 -2.423,9.832 -1.163,2.606 -2.514,5.086 -4.466,7.186 -4.157,4.472 -9.284,5.691 -15.127,4.424 -0.569,-0.124 -1.132,-0.279 -1.898,-0.468 0.36,0.401 0.589,0.67 0.832,0.924 4.374,4.573 7.349,9.916 8.769,16.091 1.095,4.761 0.752,9.454 -0.907,14.042 -0.401,1.106 -0.926,2.168 -1.394,3.25 C 0.972,-1.675 0.486,-0.838 0,0" /></g><g
           transform="translate(407.4876,314.6115)"
           id="g24"><path
             id="path26"
             style="fill:none;stroke:#373535;stroke-width:1;stroke-linecap:butt;stroke-linejoin:miter;stroke-miterlimit:10;stroke-dasharray:none;stroke-opacity:1"
             d="m 0,0 c -0.614,0.705 -1.185,1.454 -1.851,2.106 -3.346,3.28 -7.44,4.498 -12.028,4.169 -3.346,-0.24 -6.446,-1.377 -9.433,-2.848 -0.213,-0.105 -3.14,-1.676 -4.374,-2.392 l 0.227,-1.096 c 0.407,0.234 0.814,0.47 1.222,0.704 2.753,1.577 5.674,2.685 8.917,2.624 3.38,-0.063 6.272,-1.393 8.784,-3.568 3.201,-2.769 5.048,-6.377 6.117,-10.4 1.373,-5.166 1.116,-10.309 -0.478,-15.388 -1.569,-4.998 -4.205,-9.354 -8.123,-12.856 -1.351,-1.207 -2.829,-2.316 -4.384,-3.244 -0.994,-0.593 -1.992,-1.179 -2.989,-1.765 l 0.225,-1.09 c 1.574,0.913 3.147,1.827 4.722,2.738 2.259,1.307 4.632,2.291 7.262,2.574 2.952,0.318 5.611,-0.499 8.067,-2.056 3.33,-2.109 5.605,-5.123 7.267,-8.645 3.464,-7.343 3.708,-14.951 1.689,-22.676 -1.955,-7.485 -8.194,-14.214 -15.73,-16.422 -4.485,-1.315 -9.236,-0.875 -13.611,0.651 0,0 -0.504,-1.085 -0.504,-1.085 -0.028,-0.061 3.405,-1 3.599,-1.041 2.901,-0.616 5.907,-0.8 8.857,-0.464 9.166,1.045 15.996,7.749 20.298,15.515 3.125,5.641 4.615,11.711 4.324,18.161 -0.153,3.418 -1.023,6.693 -2.423,9.832 -1.163,2.606 -2.514,5.086 -4.466,7.186 -4.157,4.472 -9.284,5.691 -15.127,4.424 -0.569,-0.124 -1.132,-0.279 -1.898,-0.468 0.36,0.401 0.589,0.67 0.832,0.924 4.374,4.573 7.349,9.916 8.769,16.091 1.095,4.761 0.752,9.454 -0.907,14.042 -0.401,1.106 -0.926,2.168 -1.394,3.25 C 0.972,-1.675 0.486,-0.838 0,0 Z" /></g><g
           transform="translate(353.4807,315.9064)"
           id="g28"><path
             id="path30"
             style="fill:#373535;fill-opacity:1;fill-rule:nonzero;stroke:none"
             d="m 0,0 c 2.026,-0.536 4.128,-0.879 6.062,-1.647 4.934,-1.96 8.235,-5.69 10.551,-10.366 2.17,-4.379 3.274,-9.07 3.99,-13.865 0.75,-5.036 1.555,-10.066 2.161,-15.12 1.693,-14.105 4.377,-28.039 7.22,-41.941 1.088,-5.323 2.6,-10.562 4.005,-15.816 0.738,-2.763 1.873,-4.406 4.057,-6.386 -2.839,-0.868 -5.583,-1.922 -8.524,-0.896 -2.002,0.698 -3.043,2.393 -3.751,4.244 -0.637,1.667 -1.249,3.379 -1.564,5.127 -1.371,7.595 -2.66,15.205 -3.916,22.821 -0.96,5.813 -1.74,11.657 -2.756,17.46 -1.287,7.352 -2.69,14.684 -4.126,22.008 -0.844,4.305 -1.726,8.61 -2.817,12.857 -1.451,5.652 -3.432,11.121 -7.157,15.741 -1.211,1.503 -2.709,2.775 -4.182,4.258 0.137,0.365 0.348,0.925 0.558,1.485 C -0.126,-0.024 -0.063,-0.012 0,0" /></g></g></g></g></svg>