<?xml version="1.0" encoding="UTF-8" standalone="no"?>
<svg
   xmlns:dc="http://purl.org/dc/elements/1.1/"
   xmlns:cc="http://creativecommons.org/ns#"
   xmlns:rdf="http://www.w3.org/1999/02/22-rdf-syntax-ns#"
   xmlns:svg="http://www.w3.org/2000/svg"
   xmlns="http://www.w3.org/2000/svg"
   viewBox="0 0 1632 1056"
   height="1056"
   width="1632"
   xml:space="preserve"
   id="svg2"
   version="1.1"><metadata
     id="metadata8"><rdf:RDF><cc:Work
         rdf:about=""><dc:format>image/svg+xml</dc:format><dc:type
           rdf:resource="http://purl.org/dc/dcmitype/StillImage" /></cc:Work></rdf:RDF></metadata><defs
     id="defs6"><clipPath
       id="clipPath46"
       clipPathUnits="userSpaceOnUse"><path
         id="path44"
         d="M 0,792 H 1224 V 0 H 0 Z" /></clipPath></defs><g
     transform="matrix(1.3333333,0,0,-1.3333333,0,1056)"
     id="g10"><g
       transform="translate(265.0971,503.1949)"
       id="g12"><path
         id="path14"
         style="fill:none;stroke:#231f20;stroke-width:1;stroke-linecap:butt;stroke-linejoin:miter;stroke-miterlimit:10;stroke-dasharray:none;stroke-opacity:1"
         d="M 0,0 H 104.387" /></g><g
       transform="translate(317.2907,503.1949)"
       id="g16"><path
         id="path18"
         style="fill:none;stroke:#231f20;stroke-width:1;stroke-linecap:butt;stroke-linejoin:miter;stroke-miterlimit:10;stroke-dasharray:none;stroke-opacity:1"
         d="M 0,0 V -171.333" /></g><g
       transform="translate(363.7458,331.9043)"
       id="g20"><path
         id="path22"
         style="fill:none;stroke:#231f20;stroke-width:1;stroke-linecap:butt;stroke-linejoin:miter;stroke-miterlimit:10;stroke-dasharray:none;stroke-opacity:1"
         d="M 0,0 75.243,169.489 149.597,0.024" /></g><g
       transform="translate(390.8074,392.8616)"
       id="g24"><path
         id="path26"
         style="fill:none;stroke:#231f20;stroke-width:1;stroke-linecap:butt;stroke-linejoin:miter;stroke-miterlimit:10;stroke-dasharray:none;stroke-opacity:1"
         d="M 0,0 H 95.801" /></g><g
       transform="translate(655.7458,331.9043)"
       id="g28"><path
         id="path30"
         style="fill:none;stroke:#231f20;stroke-width:1;stroke-linecap:butt;stroke-linejoin:miter;stroke-miterlimit:10;stroke-dasharray:none;stroke-opacity:1"
         d="M 0,0 75.243,169.489 149.597,0.024" /></g><g
       transform="translate(682.8074,392.8616)"
       id="g32"><path
         id="path34"
         style="fill:none;stroke:#231f20;stroke-width:1;stroke-linecap:butt;stroke-linejoin:miter;stroke-miterlimit:10;stroke-dasharray:none;stroke-opacity:1"
         d="M 0,0 H 95.801" /></g><g
       transform="translate(829.0175,331.8968)"
       id="g36"><path
         id="path38"
         style="fill:none;stroke:#231f20;stroke-width:1;stroke-linecap:butt;stroke-linejoin:miter;stroke-miterlimit:10;stroke-dasharray:none;stroke-opacity:1"
         d="M 0,0 V 171.444 H 0.774 L 129.79,-0.182 h 0.495 v 171.469" /></g><g
       id="g40"><g
         clip-path="url(#clipPath46)"
         id="g42"><g
           transform="translate(636.1585,462.6038)"
           id="g48"><path
             id="path50"
             style="fill:none;stroke:#231f20;stroke-width:1;stroke-linecap:butt;stroke-linejoin:miter;stroke-miterlimit:10;stroke-dasharray:none;stroke-opacity:1"
             d="m 0,0 c 0.415,11.903 -5.345,24.041 -14.106,31.891 -15.71,14.076 -39.573,16.75 -59.1,10.177 -14.262,-4.8 -25.282,-15.259 -30.318,-29.522 0,0 -15.167,-39.138 38.666,-52.598 0,0 24.61,-5.19 44.405,-12.871 0,0 25.436,-9.217 21.49,-39.074 -1.722,-13.032 -10.238,-23.68 -21.517,-30.129 -19.064,-10.901 -43.472,-12.271 -62.785,-1.152 -13.451,7.743 -20.793,21.391 -22.219,36.629" /></g></g></g></g></svg>